# xmcd
#
# Track frame offsets:
#   150
#   18418
#   35440
#   49172
#   64283
#   82508
#   96508
#   117645
#   134017
#   153580
#   167444
#   185168
#   201117
#   215476
#   231848
#   242566
#   254035
#   268124
#
# Disc length: 3787 seconds
#
# Revision: 0
# Processed by: cddbd v1.5.2PL0 Copyright (c) Steve Scherf et al.
# Submitted via: Media_Universe 3.0
#
DISCID=0c0ec912
DTITLE=Acda En De Munnik - Acda En De Munnik - Alle Singels CD 1
DYEAR=2013
DGENRE=Pop
TTITLE0=Acda En De Munnik - Niet Of Nooit Geweest
TTITLE1=Acda En De Munnik - Het Regent Zonnestralen
TTITLE2=Acda En De Munnik - De Kapitein Deel II
TTITLE3=Acda En De Munnik - Voetstuk Staan
TTITLE4=Acda En De Munnik - Groeten Uit Maaiveld
TTITLE5=Acda En De Munnik - Dan Leef Ik Toch Nog Een Keer
TTITLE6=De Poema's - Zij Maakt Het Verschil
TTITLE7=Acda En De Munnik - (Noem Me) Oud Verdriet
TTITLE8=Acda En De Munnik - Brussel Moeten Heten
TTITLE9=Acda En De Munnik - Het Geeft Niet
TTITLE10=Acda En De Munnik - Eva
TTITLE11=Acda En De Munnik - Suiker En Azijn
TTITLE12=Acda En De Munnik - Mis Ik Mij
TTITLE13=Acda En De Munnik - Woorden Van Een Ander
TTITLE14=Acda En De Munnik - Waar Was Je Dan
TTITLE15=Nick and Thomas - Sterker Nu Dan Ooit
TTITLE16=Acda En De Munnik - Schoolplein
TTITLE17=Acda En De Munnik - Draaien
EXTD=
EXTT0=
EXTT1=
EXTT2=
EXTT3=
EXTT4=
EXTT5=
EXTT6=
EXTT7=
EXTT8=
EXTT9=
EXTT10=
EXTT11=
EXTT12=
EXTT13=
EXTT14=
EXTT15=
EXTT16=
EXTT17=
PLAYORDER=
